<svg width="295" height="74" viewBox="0 0 295 74" fill="none" xmlns="http://www.w3.org/2000/svg">
<g filter="url(#filter0_d)">
<rect x="8" y="8" width="279" height="58" rx="29" fill="#FD435A"/>
</g>
<path d="M106.95 44.18C106.18 44.18 105.5 44.05 104.91 43.79C104.32 43.52 103.855 43.14 103.515 42.65C103.175 42.15 103 41.545 102.99 40.835H105.015C105.035 41.325 105.21 41.74 105.54 42.08C105.88 42.41 106.345 42.575 106.935 42.575C107.445 42.575 107.85 42.455 108.15 42.215C108.45 41.965 108.6 41.635 108.6 41.225C108.6 40.795 108.465 40.46 108.195 40.22C107.935 39.98 107.585 39.785 107.145 39.635C106.705 39.485 106.235 39.325 105.735 39.155C104.925 38.875 104.305 38.515 103.875 38.075C103.455 37.635 103.245 37.05 103.245 36.32C103.235 35.7 103.38 35.17 103.68 34.73C103.99 34.28 104.41 33.935 104.94 33.695C105.47 33.445 106.08 33.32 106.77 33.32C107.47 33.32 108.085 33.445 108.615 33.695C109.155 33.945 109.575 34.295 109.875 34.745C110.185 35.195 110.35 35.73 110.37 36.35H108.315C108.305 35.98 108.16 35.655 107.88 35.375C107.61 35.085 107.23 34.94 106.74 34.94C106.32 34.93 105.965 35.035 105.675 35.255C105.395 35.465 105.255 35.775 105.255 36.185C105.255 36.535 105.365 36.815 105.585 37.025C105.805 37.225 106.105 37.395 106.485 37.535C106.865 37.675 107.3 37.825 107.79 37.985C108.31 38.165 108.785 38.375 109.215 38.615C109.645 38.855 109.99 39.175 110.25 39.575C110.51 39.965 110.64 40.47 110.64 41.09C110.64 41.64 110.5 42.15 110.22 42.62C109.94 43.09 109.525 43.47 108.975 43.76C108.425 44.04 107.75 44.18 106.95 44.18ZM112.915 44V33.5H114.835V37.865H119.545V33.5H121.465V44H119.545V39.425H114.835V44H112.915ZM129.026 44.18C127.976 44.18 127.056 43.95 126.266 43.49C125.486 43.03 124.871 42.395 124.421 41.585C123.981 40.765 123.761 39.82 123.761 38.75C123.761 37.68 123.981 36.74 124.421 35.93C124.871 35.11 125.486 34.47 126.266 34.01C127.056 33.55 127.976 33.32 129.026 33.32C130.066 33.32 130.981 33.55 131.771 34.01C132.561 34.47 133.176 35.11 133.616 35.93C134.056 36.74 134.276 37.68 134.276 38.75C134.276 39.82 134.056 40.765 133.616 41.585C133.176 42.395 132.561 43.03 131.771 43.49C130.981 43.95 130.066 44.18 129.026 44.18ZM129.026 42.455C130.026 42.455 130.821 42.125 131.411 41.465C132.011 40.805 132.311 39.9 132.311 38.75C132.311 37.6 132.011 36.695 131.411 36.035C130.821 35.375 130.026 35.045 129.026 35.045C128.026 35.045 127.226 35.375 126.626 36.035C126.026 36.695 125.726 37.6 125.726 38.75C125.726 39.9 126.026 40.805 126.626 41.465C127.226 42.125 128.026 42.455 129.026 42.455ZM138.247 44L135.472 33.5H137.527L139.417 41.855L141.637 33.5H143.752L145.912 41.855L147.802 33.5H149.872L147.022 44H144.742L142.657 36.215L140.512 44H138.247ZM156.038 44V33.5H158.318L161.663 40.16L164.963 33.5H167.243V44H165.323V36.755L162.398 42.5H160.883L157.958 36.755V44H156.038ZM169.88 44V33.5H176.735V35.045H171.8V37.925H176.285V39.425H171.8V42.455H176.735V44H169.88ZM183.326 44V33.5H185.246V37.865H189.956V33.5H191.876V44H189.956V39.425H185.246V44H183.326ZM199.437 44.18C198.387 44.18 197.467 43.95 196.677 43.49C195.897 43.03 195.282 42.395 194.832 41.585C194.392 40.765 194.172 39.82 194.172 38.75C194.172 37.68 194.392 36.74 194.832 35.93C195.282 35.11 195.897 34.47 196.677 34.01C197.467 33.55 198.387 33.32 199.437 33.32C200.477 33.32 201.392 33.55 202.182 34.01C202.972 34.47 203.587 35.11 204.027 35.93C204.467 36.74 204.687 37.68 204.687 38.75C204.687 39.82 204.467 40.765 204.027 41.585C203.587 42.395 202.972 43.03 202.182 43.49C201.392 43.95 200.477 44.18 199.437 44.18ZM199.437 42.455C200.437 42.455 201.232 42.125 201.822 41.465C202.422 40.805 202.722 39.9 202.722 38.75C202.722 37.6 202.422 36.695 201.822 36.035C201.232 35.375 200.437 35.045 199.437 35.045C198.437 35.045 197.637 35.375 197.037 36.035C196.437 36.695 196.137 37.6 196.137 38.75C196.137 39.9 196.437 40.805 197.037 41.465C197.637 42.125 198.437 42.455 199.437 42.455ZM208.658 44L205.883 33.5H207.938L209.828 41.855L212.048 33.5H214.163L216.323 41.855L218.213 33.5H220.283L217.433 44H215.153L213.068 36.215L210.923 44H208.658Z" fill="white"/>
<path d="M104.91 43.79L104.785 44.0628L104.789 44.0645L104.91 43.79ZM103.515 42.65L103.267 42.8187L103.269 42.821L103.515 42.65ZM102.99 40.835V40.535H102.686L102.69 40.8392L102.99 40.835ZM105.015 40.835L105.315 40.8228L105.303 40.535H105.015V40.835ZM105.54 42.08L105.325 42.289L105.331 42.2953L105.54 42.08ZM108.15 42.215L108.338 42.4493L108.342 42.4455L108.15 42.215ZM108.195 40.22L107.992 40.4405L107.996 40.4442L108.195 40.22ZM107.145 39.635L107.048 39.919H107.048L107.145 39.635ZM105.735 39.155L105.637 39.4385L105.639 39.439L105.735 39.155ZM103.875 38.075L103.658 38.2822L103.661 38.2847L103.875 38.075ZM103.245 36.32H103.545L103.545 36.3152L103.245 36.32ZM103.68 34.73L103.433 34.5598L103.432 34.561L103.68 34.73ZM104.94 33.695L105.064 33.9683L105.068 33.9663L104.94 33.695ZM108.615 33.695L108.487 33.9663L108.489 33.9672L108.615 33.695ZM109.875 34.745L109.626 34.9114L109.628 34.9152L109.875 34.745ZM110.37 36.35V36.65H110.68L110.67 36.3403L110.37 36.35ZM108.315 36.35L108.015 36.3581L108.023 36.65H108.315V36.35ZM107.88 35.375L107.661 35.5796L107.668 35.5871L107.88 35.375ZM106.74 34.94L106.733 35.24H106.74V34.94ZM105.675 35.255L105.855 35.495L105.857 35.494L105.675 35.255ZM105.585 37.025L105.378 37.2421L105.383 37.247L105.585 37.025ZM106.485 37.535L106.589 37.2535L106.485 37.535ZM107.79 37.985L107.888 37.7015L107.883 37.6998L107.79 37.985ZM109.215 38.615L109.361 38.353L109.215 38.615ZM110.25 39.575L109.999 39.7385L110.001 39.7414L110.25 39.575ZM110.22 42.62L110.478 42.7735H110.478L110.22 42.62ZM108.975 43.76L109.111 44.0274L109.115 44.0254L108.975 43.76ZM106.95 43.88C106.214 43.88 105.576 43.7557 105.031 43.5155L104.789 44.0645C105.424 44.3443 106.147 44.48 106.95 44.48V43.88ZM105.035 43.5172C104.49 43.2676 104.068 42.9209 103.762 42.479L103.269 42.821C103.642 43.3591 104.151 43.7724 104.785 44.0628L105.035 43.5172ZM103.763 42.4813C103.462 42.0378 103.3 41.4925 103.29 40.8308L102.69 40.8392C102.701 41.5975 102.889 42.2622 103.267 42.8187L103.763 42.4813ZM102.99 41.135H105.015V40.535H102.99V41.135ZM104.715 40.8472C104.738 41.4081 104.942 41.894 105.325 42.2889L105.755 41.8711C105.479 41.586 105.332 41.2419 105.315 40.8228L104.715 40.8472ZM105.331 42.2953C105.74 42.6922 106.287 42.875 106.935 42.875V42.275C106.403 42.275 106.02 42.1278 105.749 41.8647L105.331 42.2953ZM106.935 42.875C107.491 42.875 107.969 42.744 108.338 42.4493L107.963 41.9807C107.731 42.166 107.399 42.275 106.935 42.275V42.875ZM108.342 42.4455C108.714 42.1353 108.9 41.7189 108.9 41.225H108.3C108.3 41.5511 108.186 41.7947 107.958 41.9845L108.342 42.4455ZM108.9 41.225C108.9 40.7271 108.741 40.3036 108.395 39.9958L107.996 40.4442C108.19 40.6164 108.3 40.8629 108.3 41.225H108.9ZM108.399 39.9996C108.1 39.7238 107.71 39.5105 107.242 39.351L107.048 39.919C107.461 40.0595 107.771 40.2362 107.992 40.4404L108.399 39.9996ZM107.242 39.351C106.802 39.201 106.332 39.041 105.832 38.871L105.639 39.439C106.139 39.609 106.608 39.769 107.048 39.919L107.242 39.351ZM105.833 38.8715C105.051 38.6011 104.477 38.2615 104.09 37.8653L103.661 38.2847C104.133 38.7685 104.799 39.1489 105.637 39.4385L105.833 38.8715ZM104.092 37.8679C103.736 37.4945 103.545 36.9893 103.545 36.32H102.945C102.945 37.1107 103.175 37.7755 103.658 38.2821L104.092 37.8679ZM103.545 36.3152C103.536 35.7466 103.668 35.2798 103.928 34.899L103.432 34.561C103.092 35.0602 102.934 35.6534 102.945 36.3248L103.545 36.3152ZM103.927 34.9002C104.204 34.4981 104.58 34.1873 105.064 33.9683L104.816 33.4217C104.24 33.6827 103.776 34.0619 103.433 34.5598L103.927 34.9002ZM105.068 33.9663C105.552 33.7383 106.117 33.62 106.77 33.62V33.02C106.044 33.02 105.389 33.1517 104.812 33.4237L105.068 33.9663ZM106.77 33.62C107.434 33.62 108.004 33.7385 108.487 33.9663L108.743 33.4237C108.166 33.1515 107.506 33.02 106.77 33.02V33.62ZM108.489 33.9672C108.984 34.1964 109.359 34.5119 109.626 34.9114L110.125 34.5786C109.791 34.0781 109.326 33.6936 108.741 33.4228L108.489 33.9672ZM109.628 34.9152C109.901 35.3117 110.052 35.7891 110.07 36.3597L110.67 36.3403C110.648 35.6709 110.469 35.0783 110.122 34.5748L109.628 34.9152ZM110.37 36.05H108.315V36.65H110.37V36.05ZM108.615 36.3419C108.603 35.8895 108.422 35.493 108.092 35.1629L107.668 35.5871C107.898 35.817 108.008 36.0705 108.015 36.3581L108.615 36.3419ZM108.1 35.1706C107.76 34.8057 107.292 34.64 106.74 34.64V35.24C107.168 35.24 107.46 35.3643 107.661 35.5794L108.1 35.1706ZM106.747 34.6401C106.27 34.6287 105.846 34.7488 105.494 35.016L105.857 35.494C106.084 35.3212 106.37 35.2313 106.733 35.2399L106.747 34.6401ZM105.495 35.015C105.126 35.2918 104.955 35.6989 104.955 36.185H105.555C105.555 35.8511 105.664 35.6382 105.855 35.495L105.495 35.015ZM104.955 36.185C104.955 36.6035 105.09 36.9667 105.378 37.242L105.792 36.808C105.641 36.6633 105.555 36.4665 105.555 36.185H104.955ZM105.383 37.247C105.64 37.4805 105.978 37.6677 106.382 37.8165L106.589 37.2535C106.233 37.1223 105.97 36.9695 105.787 36.803L105.383 37.247ZM106.382 37.8165C106.766 37.9581 107.204 38.1093 107.697 38.2702L107.883 37.6998C107.396 37.5407 106.965 37.3919 106.589 37.2535L106.382 37.8165ZM107.692 38.2685C108.197 38.4434 108.656 38.6465 109.069 38.877L109.361 38.353C108.914 38.1035 108.423 37.8866 107.888 37.7015L107.692 38.2685ZM109.069 38.877C109.458 39.094 109.766 39.3807 109.999 39.7385L110.502 39.4115C110.214 38.9693 109.833 38.616 109.361 38.353L109.069 38.877ZM110.001 39.7414C110.219 40.0685 110.34 40.5104 110.34 41.09H110.94C110.94 40.4296 110.802 39.8615 110.5 39.4086L110.001 39.7414ZM110.34 41.09C110.34 41.5863 110.215 42.0432 109.962 42.4665L110.478 42.7735C110.786 42.2568 110.94 41.6937 110.94 41.09H110.34ZM109.962 42.4665C109.714 42.8828 109.343 43.2268 108.835 43.4946L109.115 44.0254C109.707 43.7132 110.166 43.2972 110.478 42.7735L109.962 42.4665ZM108.839 43.4927C108.342 43.7458 107.716 43.88 106.95 43.88V44.48C107.784 44.48 108.509 44.3342 109.111 44.0273L108.839 43.4927ZM112.915 44H112.615V44.3H112.915V44ZM112.915 33.5V33.2H112.615V33.5H112.915ZM114.835 33.5H115.135V33.2H114.835V33.5ZM114.835 37.865H114.535V38.165H114.835V37.865ZM119.545 37.865V38.165H119.845V37.865H119.545ZM119.545 33.5V33.2H119.245V33.5H119.545ZM121.465 33.5H121.765V33.2H121.465V33.5ZM121.465 44V44.3H121.765V44H121.465ZM119.545 44H119.245V44.3H119.545V44ZM119.545 39.425H119.845V39.125H119.545V39.425ZM114.835 39.425V39.125H114.535V39.425H114.835ZM114.835 44V44.3H115.135V44H114.835ZM113.215 44V33.5H112.615V44H113.215ZM112.915 33.8H114.835V33.2H112.915V33.8ZM114.535 33.5V37.865H115.135V33.5H114.535ZM114.835 38.165H119.545V37.565H114.835V38.165ZM119.845 37.865V33.5H119.245V37.865H119.845ZM119.545 33.8H121.465V33.2H119.545V33.8ZM121.165 33.5V44H121.765V33.5H121.165ZM121.465 43.7H119.545V44.3H121.465V43.7ZM119.845 44V39.425H119.245V44H119.845ZM119.545 39.125H114.835V39.725H119.545V39.125ZM114.535 39.425V44H115.135V39.425H114.535ZM114.835 43.7H112.915V44.3H114.835V43.7ZM126.266 43.49L126.114 43.7484L126.115 43.7493L126.266 43.49ZM124.421 41.585L124.157 41.7269L124.159 41.7307L124.421 41.585ZM124.421 35.93L124.158 35.7857L124.158 35.7868L124.421 35.93ZM126.266 34.01L126.115 33.7507L126.114 33.7516L126.266 34.01ZM131.771 34.01L131.922 33.7507L131.771 34.01ZM133.616 35.93L133.352 36.0718L133.353 36.0732L133.616 35.93ZM133.616 41.585L133.88 41.7282L133.881 41.7268L133.616 41.585ZM131.771 43.49L131.922 43.7493L131.771 43.49ZM131.411 41.465L131.189 41.2632L131.188 41.2651L131.411 41.465ZM131.411 36.035L131.188 36.2349L131.189 36.2368L131.411 36.035ZM126.626 36.035L126.848 36.2368L126.626 36.035ZM126.626 41.465L126.848 41.2632L126.626 41.465ZM129.026 43.88C128.021 43.88 127.155 43.6603 126.417 43.2307L126.115 43.7493C126.958 44.2397 127.931 44.48 129.026 44.48V43.88ZM126.419 43.2316C125.686 42.7994 125.108 42.2038 124.683 41.4393L124.159 41.7307C124.634 42.5862 125.287 43.2606 126.114 43.7484L126.419 43.2316ZM124.686 41.4432C124.272 40.6729 124.061 39.778 124.061 38.75H123.461C123.461 39.862 123.69 40.8571 124.157 41.7268L124.686 41.4432ZM124.061 38.75C124.061 37.7219 124.272 36.8326 124.685 36.0732L124.158 35.7868C123.69 36.6474 123.461 37.6381 123.461 38.75H124.061ZM124.684 36.0743C125.109 35.3 125.687 34.7001 126.419 34.2684L126.114 33.7516C125.286 34.2399 124.633 34.92 124.158 35.7857L124.684 36.0743ZM126.417 34.2693C127.155 33.8397 128.021 33.62 129.026 33.62V33.02C127.931 33.02 126.958 33.2603 126.115 33.7507L126.417 34.2693ZM129.026 33.62C130.021 33.62 130.882 33.8394 131.62 34.2693L131.922 33.7507C131.08 33.2606 130.112 33.02 129.026 33.02V33.62ZM131.62 34.2693C132.361 34.7008 132.938 35.2998 133.352 36.0718L133.881 35.7882C133.415 34.9202 132.761 34.2392 131.922 33.7507L131.62 34.2693ZM133.353 36.0732C133.765 36.8326 133.976 37.7219 133.976 38.75H134.576C134.576 37.6381 134.347 36.6474 133.88 35.7868L133.353 36.0732ZM133.976 38.75C133.976 39.778 133.765 40.6729 133.352 41.4432L133.881 41.7268C134.347 40.8571 134.576 39.862 134.576 38.75H133.976ZM133.353 41.4418C132.939 42.204 132.362 42.7986 131.62 43.2307L131.922 43.7493C132.76 43.2614 133.414 42.586 133.88 41.7282L133.353 41.4418ZM131.62 43.2307C130.882 43.6606 130.021 43.88 129.026 43.88V44.48C130.112 44.48 131.08 44.2394 131.922 43.7493L131.62 43.2307ZM129.026 42.755C130.099 42.755 130.98 42.3972 131.635 41.6649L131.188 41.2651C130.662 41.8528 129.953 42.155 129.026 42.155V42.755ZM131.633 41.6668C132.297 40.9371 132.611 39.9524 132.611 38.75H132.011C132.011 39.8476 131.726 40.6729 131.189 41.2632L131.633 41.6668ZM132.611 38.75C132.611 37.5476 132.297 36.5629 131.633 35.8332L131.189 36.2368C131.726 36.8271 132.011 37.6524 132.011 38.75H132.611ZM131.635 35.8351C130.98 35.1028 130.099 34.745 129.026 34.745V35.345C129.953 35.345 130.662 35.6472 131.188 36.2349L131.635 35.8351ZM129.026 34.745C127.953 34.745 127.068 35.1027 126.404 35.8332L126.848 36.2368C127.384 35.6473 128.099 35.345 129.026 35.345V34.745ZM126.404 35.8332C125.741 36.5629 125.426 37.5476 125.426 38.75H126.026C126.026 37.6524 126.312 36.8271 126.848 36.2368L126.404 35.8332ZM125.426 38.75C125.426 39.9524 125.741 40.9371 126.404 41.6668L126.848 41.2632C126.312 40.6729 126.026 39.8476 126.026 38.75H125.426ZM126.404 41.6668C127.068 42.3973 127.953 42.755 129.026 42.755V42.155C128.099 42.155 127.384 41.8527 126.848 41.2632L126.404 41.6668ZM138.247 44L137.957 44.0767L138.016 44.3H138.247V44ZM135.472 33.5V33.2H135.083L135.182 33.5767L135.472 33.5ZM137.527 33.5L137.82 33.4338L137.767 33.2H137.527V33.5ZM139.417 41.855L139.125 41.9212L139.707 41.932L139.417 41.855ZM141.637 33.5V33.2H141.407L141.347 33.423L141.637 33.5ZM143.752 33.5L144.043 33.4249L143.985 33.2H143.752V33.5ZM145.912 41.855L145.622 41.9301L146.205 41.9212L145.912 41.855ZM147.802 33.5V33.2H147.563L147.51 33.4338L147.802 33.5ZM149.872 33.5L150.162 33.5786L150.265 33.2H149.872V33.5ZM147.022 44V44.3H147.252L147.312 44.0786L147.022 44ZM144.742 44L144.453 44.0776L144.512 44.3H144.742V44ZM142.657 36.215L142.947 36.1374L142.661 35.0707L142.368 36.1353L142.657 36.215ZM140.512 44V44.3H140.741L140.802 44.0797L140.512 44ZM138.537 43.9233L135.762 33.4233L135.182 33.5767L137.957 44.0767L138.537 43.9233ZM135.472 33.8H137.527V33.2H135.472V33.8ZM137.235 33.5662L139.125 41.9212L139.71 41.7888L137.82 33.4338L137.235 33.5662ZM139.707 41.932L141.927 33.577L141.347 33.423L139.127 41.778L139.707 41.932ZM141.637 33.8H143.752V33.2H141.637V33.8ZM143.462 33.5751L145.622 41.9301L146.203 41.7799L144.043 33.4249L143.462 33.5751ZM146.205 41.9212L148.095 33.5662L147.51 33.4338L145.62 41.7888L146.205 41.9212ZM147.802 33.8H149.872V33.2H147.802V33.8ZM149.583 33.4214L146.733 43.9214L147.312 44.0786L150.162 33.5786L149.583 33.4214ZM147.022 43.7H144.742V44.3H147.022V43.7ZM145.032 43.9224L142.947 36.1374L142.368 36.2926L144.453 44.0776L145.032 43.9224ZM142.368 36.1353L140.223 43.9203L140.802 44.0797L142.947 36.2947L142.368 36.1353ZM140.512 43.7H138.247V44.3H140.512V43.7ZM156.038 44H155.738V44.3H156.038V44ZM156.038 33.5V33.2H155.738V33.5H156.038ZM158.318 33.5L158.586 33.3654L158.503 33.2H158.318V33.5ZM161.663 40.16L161.395 40.2946L161.665 40.832L161.932 40.2932L161.663 40.16ZM164.963 33.5V33.2H164.777L164.694 33.3668L164.963 33.5ZM167.243 33.5H167.543V33.2H167.243V33.5ZM167.243 44V44.3H167.543V44H167.243ZM165.323 44H165.023V44.3H165.323V44ZM165.323 36.755H165.623L165.056 36.6189L165.323 36.755ZM162.398 42.5V42.8H162.582L162.665 42.6361L162.398 42.5ZM160.883 42.5L160.616 42.6361L160.699 42.8H160.883V42.5ZM157.958 36.755L158.225 36.6189L157.658 36.755H157.958ZM157.958 44V44.3H158.258V44H157.958ZM156.338 44V33.5H155.738V44H156.338ZM156.038 33.8H158.318V33.2H156.038V33.8ZM158.05 33.6346L161.395 40.2946L161.931 40.0254L158.586 33.3654L158.05 33.6346ZM161.932 40.2932L165.232 33.6332L164.694 33.3668L161.394 40.0268L161.932 40.2932ZM164.963 33.8H167.243V33.2H164.963V33.8ZM166.943 33.5V44H167.543V33.5H166.943ZM167.243 43.7H165.323V44.3H167.243V43.7ZM165.623 44V36.755H165.023V44H165.623ZM165.056 36.6189L162.131 42.3639L162.665 42.6361L165.59 36.8911L165.056 36.6189ZM162.398 42.2H160.883V42.8H162.398V42.2ZM161.15 42.3639L158.225 36.6189L157.691 36.8911L160.616 42.6361L161.15 42.3639ZM157.658 36.755V44H158.258V36.755H157.658ZM157.958 43.7H156.038V44.3H157.958V43.7ZM169.88 44H169.58V44.3H169.88V44ZM169.88 33.5V33.2H169.58V33.5H169.88ZM176.735 33.5H177.035V33.2H176.735V33.5ZM176.735 35.045V35.345H177.035V35.045H176.735ZM171.8 35.045V34.745H171.5V35.045H171.8ZM171.8 37.925H171.5V38.225H171.8V37.925ZM176.285 37.925H176.585V37.625H176.285V37.925ZM176.285 39.425V39.725H176.585V39.425H176.285ZM171.8 39.425V39.125H171.5V39.425H171.8ZM171.8 42.455H171.5V42.755H171.8V42.455ZM176.735 42.455H177.035V42.155H176.735V42.455ZM176.735 44V44.3H177.035V44H176.735ZM170.18 44V33.5H169.58V44H170.18ZM169.88 33.8H176.735V33.2H169.88V33.8ZM176.435 33.5V35.045H177.035V33.5H176.435ZM176.735 34.745H171.8V35.345H176.735V34.745ZM171.5 35.045V37.925H172.1V35.045H171.5ZM171.8 38.225H176.285V37.625H171.8V38.225ZM175.985 37.925V39.425H176.585V37.925H175.985ZM176.285 39.125H171.8V39.725H176.285V39.125ZM171.5 39.425V42.455H172.1V39.425H171.5ZM171.8 42.755H176.735V42.155H171.8V42.755ZM176.435 42.455V44H177.035V42.455H176.435ZM176.735 43.7H169.88V44.3H176.735V43.7ZM183.326 44H183.026V44.3H183.326V44ZM183.326 33.5V33.2H183.026V33.5H183.326ZM185.246 33.5H185.546V33.2H185.246V33.5ZM185.246 37.865H184.946V38.165H185.246V37.865ZM189.956 37.865V38.165H190.256V37.865H189.956ZM189.956 33.5V33.2H189.656V33.5H189.956ZM191.876 33.5H192.176V33.2H191.876V33.5ZM191.876 44V44.3H192.176V44H191.876ZM189.956 44H189.656V44.3H189.956V44ZM189.956 39.425H190.256V39.125H189.956V39.425ZM185.246 39.425V39.125H184.946V39.425H185.246ZM185.246 44V44.3H185.546V44H185.246ZM183.626 44V33.5H183.026V44H183.626ZM183.326 33.8H185.246V33.2H183.326V33.8ZM184.946 33.5V37.865H185.546V33.5H184.946ZM185.246 38.165H189.956V37.565H185.246V38.165ZM190.256 37.865V33.5H189.656V37.865H190.256ZM189.956 33.8H191.876V33.2H189.956V33.8ZM191.576 33.5V44H192.176V33.5H191.576ZM191.876 43.7H189.956V44.3H191.876V43.7ZM190.256 44V39.425H189.656V44H190.256ZM189.956 39.125H185.246V39.725H189.956V39.125ZM184.946 39.425V44H185.546V39.425H184.946ZM185.246 43.7H183.326V44.3H185.246V43.7ZM196.677 43.49L196.525 43.7484L196.526 43.7493L196.677 43.49ZM194.832 41.585L194.568 41.7269L194.57 41.7307L194.832 41.585ZM194.832 35.93L194.569 35.7857L194.569 35.7868L194.832 35.93ZM196.677 34.01L196.526 33.7507L196.525 33.7516L196.677 34.01ZM202.182 34.01L202.333 33.7507L202.182 34.01ZM204.027 35.93L203.763 36.0718L203.764 36.0732L204.027 35.93ZM204.027 41.585L204.291 41.7282L204.292 41.7268L204.027 41.585ZM202.182 43.49L202.333 43.7493L202.182 43.49ZM201.822 41.465L201.6 41.2632L201.599 41.2651L201.822 41.465ZM201.822 36.035L201.599 36.2349L201.6 36.2368L201.822 36.035ZM197.037 36.035L197.259 36.2368L197.037 36.035ZM197.037 41.465L197.259 41.2632L197.037 41.465ZM199.437 43.88C198.432 43.88 197.566 43.6603 196.828 43.2307L196.526 43.7493C197.368 44.2397 198.342 44.48 199.437 44.48V43.88ZM196.83 43.2316C196.097 42.7994 195.519 42.2038 195.094 41.4393L194.57 41.7307C195.045 42.5862 195.698 43.2606 196.525 43.7484L196.83 43.2316ZM195.097 41.4432C194.683 40.6729 194.472 39.778 194.472 38.75H193.872C193.872 39.862 194.101 40.8571 194.568 41.7268L195.097 41.4432ZM194.472 38.75C194.472 37.7219 194.683 36.8326 195.096 36.0732L194.569 35.7868C194.101 36.6474 193.872 37.6381 193.872 38.75H194.472ZM195.095 36.0743C195.52 35.3 196.098 34.7001 196.83 34.2684L196.525 33.7516C195.697 34.2399 195.044 34.92 194.569 35.7857L195.095 36.0743ZM196.828 34.2693C197.566 33.8397 198.432 33.62 199.437 33.62V33.02C198.342 33.02 197.368 33.2603 196.526 33.7507L196.828 34.2693ZM199.437 33.62C200.432 33.62 201.293 33.8394 202.031 34.2693L202.333 33.7507C201.491 33.2606 200.523 33.02 199.437 33.02V33.62ZM202.031 34.2693C202.772 34.7008 203.349 35.2998 203.763 36.0718L204.292 35.7882C203.826 34.9202 203.172 34.2392 202.333 33.7507L202.031 34.2693ZM203.764 36.0732C204.176 36.8326 204.387 37.7219 204.387 38.75H204.987C204.987 37.6381 204.758 36.6474 204.291 35.7868L203.764 36.0732ZM204.387 38.75C204.387 39.778 204.176 40.6729 203.763 41.4432L204.292 41.7268C204.758 40.8571 204.987 39.862 204.987 38.75H204.387ZM203.764 41.4418C203.35 42.204 202.773 42.7986 202.031 43.2307L202.333 43.7493C203.171 43.2614 203.825 42.586 204.291 41.7282L203.764 41.4418ZM202.031 43.2307C201.293 43.6606 200.432 43.88 199.437 43.88V44.48C200.523 44.48 201.491 44.2394 202.333 43.7493L202.031 43.2307ZM199.437 42.755C200.51 42.755 201.391 42.3972 202.046 41.6649L201.599 41.2651C201.073 41.8528 200.364 42.155 199.437 42.155V42.755ZM202.044 41.6668C202.708 40.9371 203.022 39.9524 203.022 38.75H202.422C202.422 39.8476 202.137 40.6729 201.6 41.2632L202.044 41.6668ZM203.022 38.75C203.022 37.5476 202.708 36.5629 202.044 35.8332L201.6 36.2368C202.137 36.8271 202.422 37.6524 202.422 38.75H203.022ZM202.046 35.8351C201.391 35.1028 200.51 34.745 199.437 34.745V35.345C200.364 35.345 201.073 35.6472 201.599 36.2349L202.046 35.8351ZM199.437 34.745C198.364 34.745 197.479 35.1027 196.815 35.8332L197.259 36.2368C197.795 35.6473 198.51 35.345 199.437 35.345V34.745ZM196.815 35.8332C196.152 36.5629 195.837 37.5476 195.837 38.75H196.437C196.437 37.6524 196.723 36.8271 197.259 36.2368L196.815 35.8332ZM195.837 38.75C195.837 39.9524 196.152 40.9371 196.815 41.6668L197.259 41.2632C196.723 40.6729 196.437 39.8476 196.437 38.75H195.837ZM196.815 41.6668C197.479 42.3973 198.364 42.755 199.437 42.755V42.155C198.51 42.155 197.795 41.8527 197.259 41.2632L196.815 41.6668ZM208.658 44L208.368 44.0767L208.427 44.3H208.658V44ZM205.883 33.5V33.2H205.494L205.593 33.5767L205.883 33.5ZM207.938 33.5L208.231 33.4338L208.178 33.2H207.938V33.5ZM209.828 41.855L209.536 41.9212L210.118 41.932L209.828 41.855ZM212.048 33.5V33.2H211.818L211.758 33.423L212.048 33.5ZM214.163 33.5L214.454 33.4249L214.396 33.2H214.163V33.5ZM216.323 41.855L216.033 41.9301L216.616 41.9212L216.323 41.855ZM218.213 33.5V33.2H217.974L217.921 33.4338L218.213 33.5ZM220.283 33.5L220.573 33.5786L220.676 33.2H220.283V33.5ZM217.433 44V44.3H217.663L217.723 44.0786L217.433 44ZM215.153 44L214.864 44.0776L214.923 44.3H215.153V44ZM213.068 36.215L213.358 36.1374L213.072 35.0707L212.779 36.1353L213.068 36.215ZM210.923 44V44.3H211.152L211.213 44.0797L210.923 44ZM208.948 43.9233L206.173 33.4233L205.593 33.5767L208.368 44.0767L208.948 43.9233ZM205.883 33.8H207.938V33.2H205.883V33.8ZM207.646 33.5662L209.536 41.9212L210.121 41.7888L208.231 33.4338L207.646 33.5662ZM210.118 41.932L212.338 33.577L211.758 33.423L209.538 41.778L210.118 41.932ZM212.048 33.8H214.163V33.2H212.048V33.8ZM213.873 33.5751L216.033 41.9301L216.614 41.7799L214.454 33.4249L213.873 33.5751ZM216.616 41.9212L218.506 33.5662L217.921 33.4338L216.031 41.7888L216.616 41.9212ZM218.213 33.8H220.283V33.2H218.213V33.8ZM219.994 33.4214L217.144 43.9214L217.723 44.0786L220.573 33.5786L219.994 33.4214ZM217.433 43.7H215.153V44.3H217.433V43.7ZM215.443 43.9224L213.358 36.1374L212.779 36.2926L214.864 44.0776L215.443 43.9224ZM212.779 36.1353L210.634 43.9203L211.213 44.0797L213.358 36.2947L212.779 36.1353ZM210.923 43.7H208.658V44.3H210.923V43.7Z" fill="white"/>
<path d="M74 26C67.3726 26 62 31.3726 62 38C62 44.6274 67.3726 50 74 50C80.6274 50 86 44.6274 86 38C85.9929 31.3755 80.6245 26.0071 74 26ZM79.0536 38.3823C78.9706 38.549 78.8355 38.6841 78.6688 38.7671V38.7714L71.8117 42.2C71.3882 42.4116 70.8734 42.2399 70.6618 41.8164C70.6016 41.696 70.5706 41.5631 70.5714 41.4286V34.5714C70.5712 34.098 70.9547 33.7141 71.4281 33.7139C71.5613 33.7138 71.6926 33.7448 71.8117 33.8043L78.6688 37.2329C79.0925 37.444 79.2648 37.9586 79.0536 38.3823Z" fill="white"/>
<defs>
<filter id="filter0_d" x="0" y="0" width="295" height="74" filterUnits="userSpaceOnUse" color-interpolation-filters="sRGB">
<feFlood flood-opacity="0" result="BackgroundImageFix"/>
<feColorMatrix in="SourceAlpha" type="matrix" values="0 0 0 0 0 0 0 0 0 0 0 0 0 0 0 0 0 0 127 0"/>
<feMorphology radius="8" operator="dilate" in="SourceAlpha" result="effect1_dropShadow"/>
<feOffset/>
<feColorMatrix type="matrix" values="0 0 0 0 1 0 0 0 0 0.558612 0 0 0 0 0.613192 0 0 0 0.25 0"/>
<feBlend mode="normal" in2="BackgroundImageFix" result="effect1_dropShadow"/>
<feBlend mode="normal" in="SourceGraphic" in2="effect1_dropShadow" result="shape"/>
</filter>
</defs>
</svg>
